# Blender v2.78 (sub 0) OBJ File: 'ramp.blend'
# www.blender.org
mtllib ramp.mtl
o Cube_Cube.004
v -1.000000 0.010982 2.700156
v -1.000000 0.013555 3.663607
v -1.000000 0.010982 -4.990668
v -1.000000 2.010982 -4.990668
v 1.000000 0.010982 2.700156
v 1.000000 0.013555 3.663607
v 1.000000 0.010982 -4.990668
v 1.000000 2.010982 -4.990668
v -1.000000 0.010982 -0.142131
v -1.000000 2.010982 -0.142131
v 1.000000 0.010982 -0.142131
v 1.000000 2.010982 -0.142131
vn -1.0000 0.0000 0.0000
vn 0.0000 0.0000 -1.0000
vn 1.0000 0.0000 0.0000
vn 0.0000 -1.0000 0.0027
vn 0.0000 -1.0000 0.0000
vn 0.0000 0.8855 0.4647
vn 0.0000 1.0000 0.0000
usemtl None
s off
f 9//1 10//1 4//1 3//1
f 3//2 4//2 8//2 7//2
f 11//3 12//3 6//3 5//3
f 5//4 6//4 2//4 1//4
f 9//5 11//5 5//5 1//5
f 12//6 10//6 2//6 6//6
f 8//7 4//7 10//7 12//7
f 3//5 7//5 11//5 9//5
f 7//3 8//3 12//3 11//3
f 1//1 2//1 10//1 9//1
